<?xml version="1.0" encoding="UTF-8" standalone="no"?>
<!DOCTYPE svg PUBLIC "-//W3C//DTD SVG 1.1//EN"
 "http://www.w3.org/Graphics/SVG/1.1/DTD/svg11.dtd">
<!-- Generated by graphviz version 5.0.1 (0)
 -->
<!-- Title: G7 Pages: 1 -->
<svg width="496pt" height="251pt"
 viewBox="0.00 0.00 496.00 251.00" xmlns="http://www.w3.org/2000/svg" xmlns:xlink="http://www.w3.org/1999/xlink">
<g id="page0,1_graph0" class="graph" transform="scale(1 1) rotate(0) translate(4 247)">
<title>G7</title>
<polygon fill="white" stroke="none" points="-4,4 -4,-247 492,-247 492,4 -4,4"/>
<!-- root -->
<g id="node1" class="node">
<title>root</title>
<ellipse fill="none" stroke="black" cx="26" cy="-139.5" rx="26" ry="26"/>
<text text-anchor="middle" x="26" y="-135.8" font-family="Helvetica,Arial,sans-serif" font-size="14.00">root</text>
</g>
<!-- a -->
<g id="node2" class="node">
<title>a</title>
<polygon fill="none" stroke="green" points="295,-172.5 295,-240.5 355,-240.5 355,-172.5 295,-172.5"/>
<text text-anchor="middle" x="325" y="-225.3" font-family="Helvetica,Arial,sans-serif" font-size="14.00">a</text>
<text text-anchor="middle" x="325" y="-210.3" font-family="Helvetica,Arial,sans-serif" font-size="14.00">cost:2</text>
<text text-anchor="middle" x="325" y="-195.3" font-family="Helvetica,Arial,sans-serif" font-size="14.00">end:5</text>
<text text-anchor="middle" x="325" y="-180.3" font-family="Helvetica,Arial,sans-serif" font-size="14.00">batch:z</text>
</g>
<!-- root&#45;&gt;a -->
<g id="edge1" class="edge">
<title>root&#45;&gt;a</title>
<path fill="none" stroke="black" d="M46.08,-156.33C57.52,-165.61 72.77,-176.61 88,-183.5 127.87,-201.55 140.22,-205.5 184,-205.5 184,-205.5 184,-205.5 222,-205.5 242.76,-205.5 265.91,-205.71 284.9,-205.94"/>
<polygon fill="black" stroke="black" points="284.94,-209.44 294.98,-206.06 285.02,-202.44 284.94,-209.44"/>
</g>
<!-- b -->
<g id="node3" class="node">
<title>b</title>
<polygon fill="none" stroke="black" points="88,-105.5 88,-173.5 148,-173.5 148,-105.5 88,-105.5"/>
<text text-anchor="middle" x="118" y="-158.3" font-family="Helvetica,Arial,sans-serif" font-size="14.00">b</text>
<text text-anchor="middle" x="118" y="-143.3" font-family="Helvetica,Arial,sans-serif" font-size="14.00">cost:1</text>
<text text-anchor="middle" x="118" y="-128.3" font-family="Helvetica,Arial,sans-serif" font-size="14.00">end:1</text>
<text text-anchor="middle" x="118" y="-113.3" font-family="Helvetica,Arial,sans-serif" font-size="14.00">batch:z</text>
</g>
<!-- root&#45;&gt;b -->
<g id="edge2" class="edge">
<title>root&#45;&gt;b</title>
<path fill="none" stroke="black" d="M52.07,-139.5C60.07,-139.5 69.12,-139.5 77.87,-139.5"/>
<polygon fill="black" stroke="black" points="77.93,-143 87.93,-139.5 77.93,-136 77.93,-143"/>
</g>
<!-- c -->
<g id="node4" class="node">
<title>c</title>
<polygon fill="none" stroke="black" points="88,-12.5 88,-80.5 148,-80.5 148,-12.5 88,-12.5"/>
<text text-anchor="middle" x="118" y="-65.3" font-family="Helvetica,Arial,sans-serif" font-size="14.00">c</text>
<text text-anchor="middle" x="118" y="-50.3" font-family="Helvetica,Arial,sans-serif" font-size="14.00">cost:1</text>
<text text-anchor="middle" x="118" y="-35.3" font-family="Helvetica,Arial,sans-serif" font-size="14.00">end:1</text>
<text text-anchor="middle" x="118" y="-20.3" font-family="Helvetica,Arial,sans-serif" font-size="14.00">batch:x</text>
</g>
<!-- root&#45;&gt;c -->
<g id="edge3" class="edge">
<title>root&#45;&gt;c</title>
<path fill="none" stroke="black" d="M44.78,-121.13C55.06,-110.51 68.37,-96.75 80.76,-83.95"/>
<polygon fill="black" stroke="black" points="83.48,-86.17 87.92,-76.55 78.45,-81.3 83.48,-86.17"/>
</g>
<!-- d -->
<g id="node5" class="node">
<title>d</title>
<polygon fill="none" stroke="red" points="428,-174.5 428,-242.5 488,-242.5 488,-174.5 428,-174.5"/>
<text text-anchor="middle" x="458" y="-227.3" font-family="Helvetica,Arial,sans-serif" font-size="14.00">d</text>
<text text-anchor="middle" x="458" y="-212.3" font-family="Helvetica,Arial,sans-serif" font-size="14.00">cost:1</text>
<text text-anchor="middle" x="458" y="-197.3" font-family="Helvetica,Arial,sans-serif" font-size="14.00">end:7</text>
<text text-anchor="middle" x="458" y="-182.3" font-family="Helvetica,Arial,sans-serif" font-size="14.00">batch:y</text>
</g>
<!-- a&#45;&gt;d -->
<g id="edge4" class="edge">
<title>a&#45;&gt;d</title>
<path fill="none" stroke="black" d="M392,-207.5C400.1,-205.2 409,-204.32 417.55,-204.24"/>
<polygon fill="black" stroke="black" points="417.65,-207.74 427.73,-204.49 417.82,-200.74 417.65,-207.74"/>
</g>
<!-- e -->
<g id="node6" class="node">
<title>e</title>
<polygon fill="none" stroke="black" points="428,-87.5 428,-155.5 488,-155.5 488,-87.5 428,-87.5"/>
<text text-anchor="middle" x="458" y="-140.3" font-family="Helvetica,Arial,sans-serif" font-size="14.00">e</text>
<text text-anchor="middle" x="458" y="-125.3" font-family="Helvetica,Arial,sans-serif" font-size="14.00">cost:2</text>
<text text-anchor="middle" x="458" y="-110.3" font-family="Helvetica,Arial,sans-serif" font-size="14.00">end:7</text>
<text text-anchor="middle" x="458" y="-95.3" font-family="Helvetica,Arial,sans-serif" font-size="14.00">batch:x</text>
</g>
<!-- a&#45;&gt;e -->
<g id="edge5" class="edge">
<title>a&#45;&gt;e</title>
<path fill="none" stroke="black" d="M355.26,-210.51C366.61,-211.15 379.6,-210.74 391,-207.5"/>
<path fill="none" stroke="black" d="M392,-207.5C397.68,-205.89 413.56,-184.95 428.21,-164.14"/>
<polygon fill="black" stroke="black" points="431.1,-166.11 433.94,-155.91 425.35,-162.11 431.1,-166.11"/>
</g>
<!-- f -->
<g id="node7" class="node">
<title>f</title>
<polygon fill="none" stroke="red" points="428,-0.5 428,-68.5 488,-68.5 488,-0.5 428,-0.5"/>
<text text-anchor="middle" x="458" y="-53.3" font-family="Helvetica,Arial,sans-serif" font-size="14.00">f</text>
<text text-anchor="middle" x="458" y="-38.3" font-family="Helvetica,Arial,sans-serif" font-size="14.00">cost:6</text>
<text text-anchor="middle" x="458" y="-23.3" font-family="Helvetica,Arial,sans-serif" font-size="14.00">end:7</text>
<text text-anchor="middle" x="458" y="-8.3" font-family="Helvetica,Arial,sans-serif" font-size="14.00">batch:y</text>
</g>
<!-- c&#45;&gt;f -->
<g id="edge6" class="edge">
<title>c&#45;&gt;f</title>
<path fill="none" stroke="black" d="M148.35,-41.2C168.67,-37.99 196.39,-34.5 221,-34.5 221,-34.5 221,-34.5 326,-34.5 356.78,-34.5 391.63,-34.5 417.64,-34.5"/>
<polygon fill="black" stroke="black" points="417.86,-38 427.86,-34.5 417.86,-31 417.86,-38"/>
</g>
</g>
</svg>
