<?xml version="1.0" encoding="UTF-8" standalone="no"?>
<!DOCTYPE svg PUBLIC "-//W3C//DTD SVG 1.1//EN"
 "http://www.w3.org/Graphics/SVG/1.1/DTD/svg11.dtd">
<!-- Generated by graphviz version 5.0.1 (0)
 -->
<!-- Title: G1 Pages: 1 -->
<svg width="685pt" height="194pt"
 viewBox="0.00 0.00 685.00 194.00" xmlns="http://www.w3.org/2000/svg" xmlns:xlink="http://www.w3.org/1999/xlink">
<g id="graph0" class="graph" transform="scale(1 1) rotate(0) translate(4 190)">
<title>G1</title>
<polygon fill="white" stroke="none" points="-4,4 -4,-190 681,-190 681,4 -4,4"/>
<!-- Query -->
<g id="node1" class="node">
<title>Query</title>
<polygon fill="none" stroke="black" points="0,-56.5 0,-148.5 55,-148.5 55,-56.5 0,-56.5"/>
<text text-anchor="middle" x="27.5" y="-133.3" font-family="Helvetica,Arial,sans-serif" font-size="14.00">Query</text>
<polyline fill="none" stroke="black" points="0,-125.5 55,-125.5"/>
<text text-anchor="middle" x="27.5" y="-110.3" font-family="Helvetica,Arial,sans-serif" font-size="14.00">a</text>
<polyline fill="none" stroke="black" points="0,-102.5 55,-102.5"/>
<text text-anchor="middle" x="27.5" y="-87.3" font-family="Helvetica,Arial,sans-serif" font-size="14.00">b</text>
<polyline fill="none" stroke="black" points="0,-79.5 55,-79.5"/>
<text text-anchor="middle" x="27.5" y="-64.3" font-family="Helvetica,Arial,sans-serif" font-size="14.00">c</text>
</g>
<!-- A -->
<g id="node2" class="node">
<title>A</title>
<polygon fill="none" stroke="black" points="226,-111 226,-180 280,-180 280,-111 226,-111"/>
<text text-anchor="middle" x="253" y="-164.8" font-family="Helvetica,Arial,sans-serif" font-size="14.00">A</text>
<polyline fill="none" stroke="black" points="226,-157 280,-157"/>
<text text-anchor="middle" x="253" y="-141.8" font-family="Helvetica,Arial,sans-serif" font-size="14.00">d</text>
<polyline fill="none" stroke="black" points="226,-134 280,-134"/>
<text text-anchor="middle" x="253" y="-118.8" font-family="Helvetica,Arial,sans-serif" font-size="14.00">e</text>
</g>
<!-- Query&#45;&gt;A -->
<g id="edge1" class="edge">
<title>Query:a&#45;&gt;A</title>
<path fill="none" stroke="black" d="M55,-114.5C64.15,-114.5 64.29,-121.69 73,-124.5 120.7,-139.88 178.79,-144.24 215.59,-145.34"/>
<polygon fill="black" stroke="black" points="215.76,-148.85 225.84,-145.58 215.92,-141.85 215.76,-148.85"/>
<text text-anchor="middle" x="162" y="-162.3" font-family="Helvetica,Arial,sans-serif" font-size="14.00">cost:2</text>
<text text-anchor="middle" x="162" y="-147.3" font-family="Helvetica,Arial,sans-serif" font-size="14.00">batch:z</text>
</g>
<!-- B -->
<g id="node3" class="node">
<title>B</title>
<polygon fill="none" stroke="black" points="135,-72.5 135,-108.5 189,-108.5 189,-72.5 135,-72.5"/>
<text text-anchor="middle" x="162" y="-86.8" font-family="Helvetica,Arial,sans-serif" font-size="14.00">B</text>
</g>
<!-- Query&#45;&gt;B -->
<g id="edge2" class="edge">
<title>Query:b&#45;&gt;B</title>
<path fill="none" stroke="black" d="M55,-90.5C78.19,-90.5 104.24,-90.5 124.71,-90.5"/>
<polygon fill="black" stroke="black" points="124.86,-94 134.86,-90.5 124.86,-87 124.86,-94"/>
<text text-anchor="middle" x="95" y="-109.3" font-family="Helvetica,Arial,sans-serif" font-size="14.00">cost:1</text>
<text text-anchor="middle" x="95" y="-94.3" font-family="Helvetica,Arial,sans-serif" font-size="14.00">batch:z</text>
</g>
<!-- C -->
<g id="node4" class="node">
<title>C</title>
<polygon fill="none" stroke="black" points="135,-7.5 135,-53.5 189,-53.5 189,-7.5 135,-7.5"/>
<text text-anchor="middle" x="162" y="-38.3" font-family="Helvetica,Arial,sans-serif" font-size="14.00">C</text>
<polyline fill="none" stroke="black" points="135,-30.5 189,-30.5"/>
<text text-anchor="middle" x="162" y="-15.3" font-family="Helvetica,Arial,sans-serif" font-size="14.00">f</text>
</g>
<!-- Query&#45;&gt;C -->
<g id="edge3" class="edge">
<title>Query:c&#45;&gt;C</title>
<path fill="none" stroke="black" d="M55,-67.5C64.38,-67.5 64.43,-60.31 73,-56.5 89.64,-49.11 108.96,-43.14 125.25,-38.79"/>
<polygon fill="black" stroke="black" points="126.14,-42.17 134.95,-36.29 124.4,-35.39 126.14,-42.17"/>
<text text-anchor="middle" x="95" y="-75.3" font-family="Helvetica,Arial,sans-serif" font-size="14.00">cost:1</text>
<text text-anchor="middle" x="95" y="-60.3" font-family="Helvetica,Arial,sans-serif" font-size="14.00">batch:x</text>
</g>
<!-- D -->
<g id="node5" class="node">
<title>D</title>
<polygon fill="none" stroke="black" points="360,-149.5 360,-185.5 414,-185.5 414,-149.5 360,-149.5"/>
<text text-anchor="middle" x="387" y="-163.8" font-family="Helvetica,Arial,sans-serif" font-size="14.00">D</text>
</g>
<!-- A&#45;&gt;D -->
<g id="edge5" class="edge">
<title>A:d&#45;&gt;D</title>
<path fill="none" stroke="black" d="M280,-145.5C303.64,-145.5 329.63,-150.81 349.96,-156.21"/>
<polygon fill="black" stroke="black" points="349.17,-159.62 359.74,-158.93 351.04,-152.88 349.17,-159.62"/>
<text text-anchor="middle" x="320" y="-172.3" font-family="Helvetica,Arial,sans-serif" font-size="14.00">cost:1</text>
<text text-anchor="middle" x="320" y="-157.3" font-family="Helvetica,Arial,sans-serif" font-size="14.00">batch:y</text>
</g>
<!-- E -->
<g id="node6" class="node">
<title>E</title>
<polygon fill="none" stroke="black" points="494,-82.5 494,-118.5 548,-118.5 548,-82.5 494,-82.5"/>
<text text-anchor="middle" x="521" y="-96.8" font-family="Helvetica,Arial,sans-serif" font-size="14.00">E</text>
</g>
<!-- A&#45;&gt;E -->
<g id="edge6" class="edge">
<title>A:e&#45;&gt;E</title>
<path fill="none" stroke="black" d="M280,-122.5C315.95,-122.5 324.25,-114.29 360,-110.5 402.27,-106.02 451.06,-103.32 483.53,-101.88"/>
<polygon fill="black" stroke="black" points="484.05,-105.36 493.89,-101.44 483.75,-98.37 484.05,-105.36"/>
<text text-anchor="middle" x="387" y="-129.3" font-family="Helvetica,Arial,sans-serif" font-size="14.00">cost:2</text>
<text text-anchor="middle" x="387" y="-114.3" font-family="Helvetica,Arial,sans-serif" font-size="14.00">batch:x</text>
</g>
<!-- F -->
<g id="node7" class="node">
<title>F</title>
<polygon fill="none" stroke="black" points="623,-0.5 623,-36.5 677,-36.5 677,-0.5 623,-0.5"/>
<text text-anchor="middle" x="650" y="-14.8" font-family="Helvetica,Arial,sans-serif" font-size="14.00">F</text>
</g>
<!-- C&#45;&gt;F -->
<g id="edge4" class="edge">
<title>C:f&#45;&gt;F</title>
<path fill="none" stroke="black" d="M189,-18.5C217,-18.5 224,-18.5 252,-18.5 252,-18.5 252,-18.5 586,-18.5 594.63,-18.5 603.93,-18.5 612.66,-18.5"/>
<polygon fill="black" stroke="black" points="612.95,-22 622.95,-18.5 612.95,-15 612.95,-22"/>
<text text-anchor="middle" x="454" y="-37.3" font-family="Helvetica,Arial,sans-serif" font-size="14.00">cost:6</text>
<text text-anchor="middle" x="454" y="-22.3" font-family="Helvetica,Arial,sans-serif" font-size="14.00">batch:y</text>
</g>
</g>
</svg>
