<?xml version="1.0" encoding="UTF-8" standalone="no"?>
<!DOCTYPE svg PUBLIC "-//W3C//DTD SVG 1.1//EN"
 "http://www.w3.org/Graphics/SVG/1.1/DTD/svg11.dtd">
<!-- Generated by graphviz version 5.0.1 (0)
 -->
<!-- Title: G4 Pages: 1 -->
<svg width="555pt" height="258pt"
 viewBox="0.00 0.00 555.00 258.00" xmlns="http://www.w3.org/2000/svg" xmlns:xlink="http://www.w3.org/1999/xlink">
<g id="page0,1_graph0" class="graph" transform="scale(1 1) rotate(0) translate(4 254)">
<title>G4</title>
<polygon fill="white" stroke="none" points="-4,4 -4,-254 551,-254 551,4 -4,4"/>
<!-- root -->
<g id="node1" class="node">
<title>root</title>
<ellipse fill="none" stroke="black" cx="26" cy="-121.5" rx="26" ry="26"/>
<text text-anchor="middle" x="26" y="-117.8" font-family="Helvetica,Arial,sans-serif" font-size="14.00">root</text>
</g>
<!-- a -->
<g id="node2" class="node">
<title>a</title>
<polygon fill="none" stroke="black" points="184,-150.5 184,-218.5 244,-218.5 244,-150.5 184,-150.5"/>
<text text-anchor="middle" x="214" y="-203.3" font-family="Helvetica,Arial,sans-serif" font-size="14.00">a</text>
<text text-anchor="middle" x="214" y="-188.3" font-family="Helvetica,Arial,sans-serif" font-size="14.00">cost:2</text>
<text text-anchor="middle" x="214" y="-173.3" font-family="Helvetica,Arial,sans-serif" font-size="14.00">end:2</text>
<text text-anchor="middle" x="214" y="-158.3" font-family="Helvetica,Arial,sans-serif" font-size="14.00">batch:z</text>
</g>
<!-- root&#45;&gt;a -->
<g id="edge1" class="edge">
<title>root&#45;&gt;a</title>
<path fill="none" stroke="black" d="M45.89,-138.76C57.27,-148.18 72.52,-159.18 88,-165.5 115.29,-176.65 148.35,-181.33 173.62,-183.26"/>
<polygon fill="black" stroke="black" points="173.72,-186.77 183.93,-183.93 174.17,-179.79 173.72,-186.77"/>
</g>
<!-- b -->
<g id="node3" class="node">
<title>b</title>
<polygon fill="none" stroke="black" points="88,-87.5 88,-155.5 148,-155.5 148,-87.5 88,-87.5"/>
<text text-anchor="middle" x="118" y="-140.3" font-family="Helvetica,Arial,sans-serif" font-size="14.00">b</text>
<text text-anchor="middle" x="118" y="-125.3" font-family="Helvetica,Arial,sans-serif" font-size="14.00">cost:1</text>
<text text-anchor="middle" x="118" y="-110.3" font-family="Helvetica,Arial,sans-serif" font-size="14.00">end:1</text>
<text text-anchor="middle" x="118" y="-95.3" font-family="Helvetica,Arial,sans-serif" font-size="14.00">batch:z</text>
</g>
<!-- root&#45;&gt;b -->
<g id="edge2" class="edge">
<title>root&#45;&gt;b</title>
<path fill="none" stroke="black" d="M52.07,-121.5C60.07,-121.5 69.12,-121.5 77.87,-121.5"/>
<polygon fill="black" stroke="black" points="77.93,-125 87.93,-121.5 77.93,-118 77.93,-125"/>
</g>
<!-- c -->
<g id="node4" class="node">
<title>c</title>
<polygon fill="none" stroke="black" points="88,-0.5 88,-68.5 148,-68.5 148,-0.5 88,-0.5"/>
<text text-anchor="middle" x="118" y="-53.3" font-family="Helvetica,Arial,sans-serif" font-size="14.00">c</text>
<text text-anchor="middle" x="118" y="-38.3" font-family="Helvetica,Arial,sans-serif" font-size="14.00">cost:1</text>
<text text-anchor="middle" x="118" y="-23.3" font-family="Helvetica,Arial,sans-serif" font-size="14.00">end:1</text>
<text text-anchor="middle" x="118" y="-8.3" font-family="Helvetica,Arial,sans-serif" font-size="14.00">batch:x</text>
</g>
<!-- root&#45;&gt;c -->
<g id="edge3" class="edge">
<title>root&#45;&gt;c</title>
<path fill="none" stroke="black" d="M45.21,-103.89C55.33,-94.11 68.3,-81.57 80.42,-69.86"/>
<polygon fill="black" stroke="black" points="83.07,-72.16 87.83,-62.7 78.2,-67.13 83.07,-72.16"/>
</g>
<!-- d -->
<g id="node5" class="node">
<title>d</title>
<polygon fill="none" stroke="black" points="280,-181.5 280,-249.5 340,-249.5 340,-181.5 280,-181.5"/>
<text text-anchor="middle" x="310" y="-234.3" font-family="Helvetica,Arial,sans-serif" font-size="14.00">d</text>
<text text-anchor="middle" x="310" y="-219.3" font-family="Helvetica,Arial,sans-serif" font-size="14.00">cost:1</text>
<text text-anchor="middle" x="310" y="-204.3" font-family="Helvetica,Arial,sans-serif" font-size="14.00">end:3</text>
<text text-anchor="middle" x="310" y="-189.3" font-family="Helvetica,Arial,sans-serif" font-size="14.00">batch:y</text>
</g>
<!-- a&#45;&gt;d -->
<g id="edge4" class="edge">
<title>a&#45;&gt;d</title>
<path fill="none" stroke="black" d="M244.22,-194.14C252.45,-196.85 261.52,-199.84 270.21,-202.71"/>
<polygon fill="black" stroke="black" points="269.19,-206.06 279.79,-205.87 271.39,-199.41 269.19,-206.06"/>
</g>
<!-- e -->
<g id="node6" class="node">
<title>e</title>
<polygon fill="none" stroke="green" points="487,-118.5 487,-186.5 547,-186.5 547,-118.5 487,-118.5"/>
<text text-anchor="middle" x="517" y="-171.3" font-family="Helvetica,Arial,sans-serif" font-size="14.00">e</text>
<text text-anchor="middle" x="517" y="-156.3" font-family="Helvetica,Arial,sans-serif" font-size="14.00">cost:2</text>
<text text-anchor="middle" x="517" y="-141.3" font-family="Helvetica,Arial,sans-serif" font-size="14.00">end:7</text>
<text text-anchor="middle" x="517" y="-126.3" font-family="Helvetica,Arial,sans-serif" font-size="14.00">batch:x</text>
</g>
<!-- a&#45;&gt;e -->
<g id="edge5" class="edge">
<title>a&#45;&gt;e</title>
<path fill="none" stroke="black" d="M244.03,-175.16C276.01,-165.71 329.12,-152.5 376,-152.5 376,-152.5 376,-152.5 414,-152.5 434.76,-152.5 457.91,-152.5 476.9,-152.5"/>
<polygon fill="black" stroke="black" points="476.98,-156 486.98,-152.5 476.98,-149 476.98,-156"/>
</g>
<!-- f -->
<g id="node7" class="node">
<title>f</title>
<polygon fill="none" stroke="black" points="487,-0.5 487,-68.5 547,-68.5 547,-0.5 487,-0.5"/>
<text text-anchor="middle" x="517" y="-53.3" font-family="Helvetica,Arial,sans-serif" font-size="14.00">f</text>
<text text-anchor="middle" x="517" y="-38.3" font-family="Helvetica,Arial,sans-serif" font-size="14.00">cost:6</text>
<text text-anchor="middle" x="517" y="-23.3" font-family="Helvetica,Arial,sans-serif" font-size="14.00">end:7</text>
<text text-anchor="middle" x="517" y="-8.3" font-family="Helvetica,Arial,sans-serif" font-size="14.00">batch:y</text>
</g>
<!-- c&#45;&gt;f -->
<g id="edge6" class="edge">
<title>c&#45;&gt;f</title>
<path fill="none" stroke="black" d="M148.29,-34.5C185.61,-34.5 252.09,-34.5 309,-34.5 309,-34.5 309,-34.5 414,-34.5 434.76,-34.5 457.91,-34.5 476.9,-34.5"/>
<polygon fill="black" stroke="black" points="476.98,-38 486.98,-34.5 476.98,-31 476.98,-38"/>
</g>
</g>
</svg>
