<?xml version="1.0" encoding="UTF-8" standalone="no"?>
<!DOCTYPE svg PUBLIC "-//W3C//DTD SVG 1.1//EN"
 "http://www.w3.org/Graphics/SVG/1.1/DTD/svg11.dtd">
<!-- Generated by graphviz version 5.0.1 (0)
 -->
<!-- Title: G5 Pages: 1 -->
<svg width="496pt" height="251pt"
 viewBox="0.00 0.00 496.00 251.00" xmlns="http://www.w3.org/2000/svg" xmlns:xlink="http://www.w3.org/1999/xlink">
<g id="page0,1_graph0" class="graph" transform="scale(1 1) rotate(0) translate(4 247)">
<title>G5</title>
<polygon fill="white" stroke="none" points="-4,4 -4,-247 492,-247 492,4 -4,4"/>
<!-- root -->
<g id="node1" class="node">
<title>root</title>
<ellipse fill="none" stroke="black" cx="26" cy="-135.5" rx="26" ry="26"/>
<text text-anchor="middle" x="26" y="-131.8" font-family="Helvetica,Arial,sans-serif" font-size="14.00">root</text>
</g>
<!-- a -->
<g id="node2" class="node">
<title>a</title>
<polygon fill="none" stroke="black" points="184,-173.5 184,-241.5 244,-241.5 244,-173.5 184,-173.5"/>
<text text-anchor="middle" x="214" y="-226.3" font-family="Helvetica,Arial,sans-serif" font-size="14.00">a</text>
<text text-anchor="middle" x="214" y="-211.3" font-family="Helvetica,Arial,sans-serif" font-size="14.00">cost:2</text>
<text text-anchor="middle" x="214" y="-196.3" font-family="Helvetica,Arial,sans-serif" font-size="14.00">end:2</text>
<text text-anchor="middle" x="214" y="-181.3" font-family="Helvetica,Arial,sans-serif" font-size="14.00">batch:z</text>
</g>
<!-- root&#45;&gt;a -->
<g id="edge1" class="edge">
<title>root&#45;&gt;a</title>
<path fill="none" stroke="black" d="M46.06,-152.36C57.5,-161.64 72.75,-172.64 88,-179.5 115.36,-191.81 148.6,-198.92 173.92,-202.89"/>
<polygon fill="black" stroke="black" points="173.5,-206.37 183.9,-204.36 174.51,-199.44 173.5,-206.37"/>
</g>
<!-- b -->
<g id="node3" class="node">
<title>b</title>
<polygon fill="none" stroke="black" points="88,-101.5 88,-169.5 148,-169.5 148,-101.5 88,-101.5"/>
<text text-anchor="middle" x="118" y="-154.3" font-family="Helvetica,Arial,sans-serif" font-size="14.00">b</text>
<text text-anchor="middle" x="118" y="-139.3" font-family="Helvetica,Arial,sans-serif" font-size="14.00">cost:1</text>
<text text-anchor="middle" x="118" y="-124.3" font-family="Helvetica,Arial,sans-serif" font-size="14.00">end:1</text>
<text text-anchor="middle" x="118" y="-109.3" font-family="Helvetica,Arial,sans-serif" font-size="14.00">batch:z</text>
</g>
<!-- root&#45;&gt;b -->
<g id="edge2" class="edge">
<title>root&#45;&gt;b</title>
<path fill="none" stroke="black" d="M52.07,-135.5C60.07,-135.5 69.12,-135.5 77.87,-135.5"/>
<polygon fill="black" stroke="black" points="77.93,-139 87.93,-135.5 77.93,-132 77.93,-139"/>
</g>
<!-- c -->
<g id="node4" class="node">
<title>c</title>
<polygon fill="none" stroke="black" points="88,-2.5 88,-70.5 148,-70.5 148,-2.5 88,-2.5"/>
<text text-anchor="middle" x="118" y="-55.3" font-family="Helvetica,Arial,sans-serif" font-size="14.00">c</text>
<text text-anchor="middle" x="118" y="-40.3" font-family="Helvetica,Arial,sans-serif" font-size="14.00">cost:1</text>
<text text-anchor="middle" x="118" y="-25.3" font-family="Helvetica,Arial,sans-serif" font-size="14.00">end:1</text>
<text text-anchor="middle" x="118" y="-10.3" font-family="Helvetica,Arial,sans-serif" font-size="14.00">batch:x</text>
</g>
<!-- root&#45;&gt;c -->
<g id="edge3" class="edge">
<title>root&#45;&gt;c</title>
<path fill="none" stroke="black" d="M44.35,-116.41C54.69,-105.03 68.22,-90.16 80.79,-76.33"/>
<polygon fill="black" stroke="black" points="83.51,-78.53 87.65,-68.78 78.33,-73.82 83.51,-78.53"/>
</g>
<!-- d -->
<g id="node5" class="node">
<title>d</title>
<polygon fill="none" stroke="green" points="428,-174.5 428,-242.5 488,-242.5 488,-174.5 428,-174.5"/>
<text text-anchor="middle" x="458" y="-227.3" font-family="Helvetica,Arial,sans-serif" font-size="14.00">d</text>
<text text-anchor="middle" x="458" y="-212.3" font-family="Helvetica,Arial,sans-serif" font-size="14.00">cost:1</text>
<text text-anchor="middle" x="458" y="-197.3" font-family="Helvetica,Arial,sans-serif" font-size="14.00">end:7</text>
<text text-anchor="middle" x="458" y="-182.3" font-family="Helvetica,Arial,sans-serif" font-size="14.00">batch:y</text>
</g>
<!-- a&#45;&gt;d -->
<g id="edge4" class="edge">
<title>a&#45;&gt;d</title>
<path fill="none" stroke="black" d="M392,-208.5C400.07,-206.09 408.96,-205.09 417.51,-204.88"/>
<polygon fill="black" stroke="black" points="417.65,-208.38 427.68,-204.97 417.71,-201.38 417.65,-208.38"/>
</g>
<!-- e -->
<g id="node6" class="node">
<title>e</title>
<polygon fill="none" stroke="black" points="428,-87.5 428,-155.5 488,-155.5 488,-87.5 428,-87.5"/>
<text text-anchor="middle" x="458" y="-140.3" font-family="Helvetica,Arial,sans-serif" font-size="14.00">e</text>
<text text-anchor="middle" x="458" y="-125.3" font-family="Helvetica,Arial,sans-serif" font-size="14.00">cost:2</text>
<text text-anchor="middle" x="458" y="-110.3" font-family="Helvetica,Arial,sans-serif" font-size="14.00">end:7</text>
<text text-anchor="middle" x="458" y="-95.3" font-family="Helvetica,Arial,sans-serif" font-size="14.00">batch:x</text>
</g>
<!-- a&#45;&gt;e -->
<g id="edge5" class="edge">
<title>a&#45;&gt;e</title>
<path fill="none" stroke="black" d="M244.07,-212.74C279.58,-218 341.07,-223.38 391,-208.5"/>
<path fill="none" stroke="black" d="M392,-208.5C397.51,-206.28 413.4,-185.09 428.08,-164.18"/>
<polygon fill="black" stroke="black" points="430.99,-166.12 433.84,-155.92 425.25,-162.12 430.99,-166.12"/>
</g>
<!-- f -->
<g id="node7" class="node">
<title>f</title>
<polygon fill="none" stroke="black" points="428,-0.5 428,-68.5 488,-68.5 488,-0.5 428,-0.5"/>
<text text-anchor="middle" x="458" y="-53.3" font-family="Helvetica,Arial,sans-serif" font-size="14.00">f</text>
<text text-anchor="middle" x="458" y="-38.3" font-family="Helvetica,Arial,sans-serif" font-size="14.00">cost:6</text>
<text text-anchor="middle" x="458" y="-23.3" font-family="Helvetica,Arial,sans-serif" font-size="14.00">end:7</text>
<text text-anchor="middle" x="458" y="-8.3" font-family="Helvetica,Arial,sans-serif" font-size="14.00">batch:y</text>
</g>
<!-- c&#45;&gt;f -->
<g id="edge6" class="edge">
<title>c&#45;&gt;f</title>
<path fill="none" stroke="black" d="M148.08,-35.92C180.32,-35.33 233.87,-34.5 280,-34.5 280,-34.5 280,-34.5 355,-34.5 375.76,-34.5 398.91,-34.5 417.9,-34.5"/>
<polygon fill="black" stroke="black" points="417.98,-38 427.98,-34.5 417.98,-31 417.98,-38"/>
</g>
</g>
</svg>
