<?xml version="1.0" encoding="UTF-8" standalone="no"?>
<!DOCTYPE svg PUBLIC "-//W3C//DTD SVG 1.1//EN"
 "http://www.w3.org/Graphics/SVG/1.1/DTD/svg11.dtd">
<!-- Generated by graphviz version 5.0.1 (0)
 -->
<!-- Title: G8 Pages: 1 -->
<svg width="496pt" height="251pt"
 viewBox="0.00 0.00 496.00 251.00" xmlns="http://www.w3.org/2000/svg" xmlns:xlink="http://www.w3.org/1999/xlink">
<g id="page0,1_graph0" class="graph" transform="scale(1 1) rotate(0) translate(4 247)">
<title>G8</title>
<polygon fill="white" stroke="none" points="-4,4 -4,-247 492,-247 492,4 -4,4"/>
<!-- root -->
<g id="node1" class="node">
<title>root</title>
<ellipse fill="none" stroke="black" cx="26" cy="-121.5" rx="26" ry="26"/>
<text text-anchor="middle" x="26" y="-117.8" font-family="Helvetica,Arial,sans-serif" font-size="14.00">root</text>
</g>
<!-- a -->
<g id="node2" class="node">
<title>a</title>
<polygon fill="none" stroke="black" points="295,-162.5 295,-230.5 355,-230.5 355,-162.5 295,-162.5"/>
<text text-anchor="middle" x="325" y="-215.3" font-family="Helvetica,Arial,sans-serif" font-size="14.00">a</text>
<text text-anchor="middle" x="325" y="-200.3" font-family="Helvetica,Arial,sans-serif" font-size="14.00">cost:2</text>
<text text-anchor="middle" x="325" y="-185.3" font-family="Helvetica,Arial,sans-serif" font-size="14.00">end:5</text>
<text text-anchor="middle" x="325" y="-170.3" font-family="Helvetica,Arial,sans-serif" font-size="14.00">batch:z</text>
</g>
<!-- root&#45;&gt;a -->
<g id="edge1" class="edge">
<title>root&#45;&gt;a</title>
<path fill="none" stroke="black" d="M259,-196.5C266.96,-193.53 275.87,-192.31 284.48,-192.06"/>
<polygon fill="black" stroke="black" points="284.7,-195.57 294.74,-192.2 284.79,-188.57 284.7,-195.57"/>
</g>
<!-- b -->
<g id="node3" class="node">
<title>b</title>
<polygon fill="none" stroke="green" points="295,-75.5 295,-143.5 355,-143.5 355,-75.5 295,-75.5"/>
<text text-anchor="middle" x="325" y="-128.3" font-family="Helvetica,Arial,sans-serif" font-size="14.00">b</text>
<text text-anchor="middle" x="325" y="-113.3" font-family="Helvetica,Arial,sans-serif" font-size="14.00">cost:1</text>
<text text-anchor="middle" x="325" y="-98.3" font-family="Helvetica,Arial,sans-serif" font-size="14.00">end:5</text>
<text text-anchor="middle" x="325" y="-83.3" font-family="Helvetica,Arial,sans-serif" font-size="14.00">batch:z</text>
</g>
<!-- root&#45;&gt;b -->
<g id="edge2" class="edge">
<title>root&#45;&gt;b</title>
<path fill="none" stroke="black" d="M47.29,-136.68C87.37,-164.75 179.6,-219.86 258,-196.5"/>
<path fill="none" stroke="black" d="M259,-196.5C264.61,-194.41 280.68,-172.94 295.43,-151.85"/>
<polygon fill="black" stroke="black" points="298.39,-153.74 301.21,-143.52 292.63,-149.75 298.39,-153.74"/>
</g>
<!-- c -->
<g id="node4" class="node">
<title>c</title>
<polygon fill="none" stroke="black" points="88,-56.5 88,-124.5 148,-124.5 148,-56.5 88,-56.5"/>
<text text-anchor="middle" x="118" y="-109.3" font-family="Helvetica,Arial,sans-serif" font-size="14.00">c</text>
<text text-anchor="middle" x="118" y="-94.3" font-family="Helvetica,Arial,sans-serif" font-size="14.00">cost:1</text>
<text text-anchor="middle" x="118" y="-79.3" font-family="Helvetica,Arial,sans-serif" font-size="14.00">end:1</text>
<text text-anchor="middle" x="118" y="-64.3" font-family="Helvetica,Arial,sans-serif" font-size="14.00">batch:x</text>
</g>
<!-- root&#45;&gt;c -->
<g id="edge3" class="edge">
<title>root&#45;&gt;c</title>
<path fill="none" stroke="black" d="M51.12,-113.19C59.37,-110.35 68.84,-107.09 77.97,-103.94"/>
<polygon fill="black" stroke="black" points="79.36,-107.17 87.67,-100.6 77.08,-100.55 79.36,-107.17"/>
</g>
<!-- d -->
<g id="node5" class="node">
<title>d</title>
<polygon fill="none" stroke="red" points="428,-174.5 428,-242.5 488,-242.5 488,-174.5 428,-174.5"/>
<text text-anchor="middle" x="458" y="-227.3" font-family="Helvetica,Arial,sans-serif" font-size="14.00">d</text>
<text text-anchor="middle" x="458" y="-212.3" font-family="Helvetica,Arial,sans-serif" font-size="14.00">cost:1</text>
<text text-anchor="middle" x="458" y="-197.3" font-family="Helvetica,Arial,sans-serif" font-size="14.00">end:7</text>
<text text-anchor="middle" x="458" y="-182.3" font-family="Helvetica,Arial,sans-serif" font-size="14.00">batch:y</text>
</g>
<!-- a&#45;&gt;d -->
<g id="edge4" class="edge">
<title>a&#45;&gt;d</title>
<path fill="none" stroke="black" d="M392,-202.5C400.27,-200.72 409.24,-200.49 417.8,-201.06"/>
<polygon fill="black" stroke="black" points="417.67,-204.56 427.97,-202.09 418.38,-197.6 417.67,-204.56"/>
</g>
<!-- e -->
<g id="node6" class="node">
<title>e</title>
<polygon fill="none" stroke="black" points="428,-87.5 428,-155.5 488,-155.5 488,-87.5 428,-87.5"/>
<text text-anchor="middle" x="458" y="-140.3" font-family="Helvetica,Arial,sans-serif" font-size="14.00">e</text>
<text text-anchor="middle" x="458" y="-125.3" font-family="Helvetica,Arial,sans-serif" font-size="14.00">cost:2</text>
<text text-anchor="middle" x="458" y="-110.3" font-family="Helvetica,Arial,sans-serif" font-size="14.00">end:7</text>
<text text-anchor="middle" x="458" y="-95.3" font-family="Helvetica,Arial,sans-serif" font-size="14.00">batch:x</text>
</g>
<!-- a&#45;&gt;e -->
<g id="edge5" class="edge">
<title>a&#45;&gt;e</title>
<path fill="none" stroke="black" d="M355.02,-202.91C366.34,-204.44 379.36,-205 391,-202.5"/>
<path fill="none" stroke="black" d="M392,-202.5C397.39,-201.34 412.51,-182.74 426.81,-163.66"/>
<polygon fill="black" stroke="black" points="429.71,-165.62 432.85,-155.5 424.09,-161.45 429.71,-165.62"/>
</g>
<!-- f -->
<g id="node7" class="node">
<title>f</title>
<polygon fill="none" stroke="red" points="428,-0.5 428,-68.5 488,-68.5 488,-0.5 428,-0.5"/>
<text text-anchor="middle" x="458" y="-53.3" font-family="Helvetica,Arial,sans-serif" font-size="14.00">f</text>
<text text-anchor="middle" x="458" y="-38.3" font-family="Helvetica,Arial,sans-serif" font-size="14.00">cost:6</text>
<text text-anchor="middle" x="458" y="-23.3" font-family="Helvetica,Arial,sans-serif" font-size="14.00">end:7</text>
<text text-anchor="middle" x="458" y="-8.3" font-family="Helvetica,Arial,sans-serif" font-size="14.00">batch:y</text>
</g>
<!-- c&#45;&gt;f -->
<g id="edge6" class="edge">
<title>c&#45;&gt;f</title>
<path fill="none" stroke="black" d="M148.4,-64.14C167.65,-49.62 194.13,-34.5 221,-34.5 221,-34.5 221,-34.5 326,-34.5 356.78,-34.5 391.63,-34.5 417.64,-34.5"/>
<polygon fill="black" stroke="black" points="417.86,-38 427.86,-34.5 417.86,-31 417.86,-38"/>
</g>
</g>
</svg>
